# xmcd
# Copyright (C) 1995-1998 Ti Kan
#
# Track frame offsets:
#       150
#       11786
#       24898
#       35641
#       45589
#       56613
#       67441
#       82030
#       92365
#       105162
#       115427
#       129031
#       140000
#
# Disc length: 2103 seconds
#
# Revision: 0
# Processed by: cddbd v1.5.2PL0 Copyright (c) Steve Scherf et al.
# Submitted via: CD-Transfer v1.0
#
DISCID=a908350d
DTITLE=Hechtholz - 
DYEAR=1900
DGENRE=
TTITLE0=A Musig Ghört Zum Leben (07)
TTITLE1=Hechtholz Boarischer (07)
TTITLE2=Mir Kemmen Um Die Welt (07)
TTITLE3=Musikantenfreud (07)
TTITLE4=Mario Boarischer (07)
TTITLE5=Weil I A Zillertaler Bin (07)
TTITLE6=Sieben Tage, Sieben Nächte (07)
TTITLE7=Boarisch Volksmusik (07)
TTITLE8=Bei Dir Geh I In Die Knie (07)
TTITLE9=Sowieso Boarischer (07)
TTITLE10=Mia Spieln A Musig Aus Dem Bauch (07)
TTITLE11=Da Aufdrahte (07)
TTITLE12=
EXTD=
EXTT0=
EXTT1=
EXTT2=
EXTT3=
EXTT4=
EXTT5=
EXTT6=
EXTT7=
EXTT8=
EXTT9=
EXTT10=
EXTT11=
EXTT12=
PLAYORDER=
